<?xml version="1.0" encoding="UTF-8"?>
<svg id="Layer_1" xmlns="http://www.w3.org/2000/svg" version="1.1" viewBox="0 0 96.91 143.09">
  <!-- Generator: Adobe Illustrator 29.6.0, SVG Export Plug-In . SVG Version: 2.1.1 Build 142)  -->
  <path d="M72.87,85.51l-5.98,3-12.26-24.47c14.39-9.69,19.69-28.78,11.71-44.7C57.67,2.05,36.63-4.95,19.34,3.72,2.05,12.39-4.95,33.43,3.72,50.72c8.13,16.22,27.14,23.37,43.74,17.05l12.21,24.36-5.98,3,24.04,47.97,19.19-9.62-24.04-47.97ZM12.56,46.29c-6.22-12.41-1.2-27.51,11.21-33.73,12.41-6.22,27.51-1.2,33.73,11.21,6.22,12.41,1.2,27.51-11.21,33.73-12.41,6.22-27.51,1.2-33.73-11.21Z"/>
</svg>