<?xml version="1.0" encoding="UTF-8"?>
<svg id="Layer_1" xmlns="http://www.w3.org/2000/svg" version="1.1" viewBox="0 0 535.44 466.95">
  <!-- Generator: Adobe Illustrator 29.6.0, SVG Export Plug-In . SVG Version: 2.1.1 Build 142)  -->
  <path d="M535.44,0v466.95H0V0h535.44ZM177.94,17.11c-4.03-3.73-8.07,4.21-10.36,7.12-7.96,10.12-15.12,21.69-22.57,32.27-1.91,2.7-7.02,5.76-9.67,7.85-.41.08-6.48-3.11-7.47-3.67-11.17-6.33-21.67-12.3-33.9-16.98-4.68-1.79-5.64-1.36-10.2-3.94-2.53-1.43-10.61-4.15-13.51-4.58-1.5-.22-3.07-.29-4.57-.06-1.52,2.56.02,2.66,1.05,4.15,1.61,2.34,1.95,1.86,2.69,2.67.32.36.24,2.46,1.23,3.44,12.64,12.44,27.66,29.96,36.07,46.05.93,1.77,3.83,7.8,3.33,9.36-.33,1.04-2.4,3.74-3.24,4.57-2.86,2.86-7.62,5.17-10.17,8.46l-10.65,5.24,5.51,21.57c.1,2.09-3.79,4.11-5.36,5.41-2.77,2.28-8.34,7.02-11.38,8.67-2.07,1.12-6.04,1.45-7.68,2.97-.61.56-.23,1.5-.4,1.66-.14.13-2.65.14-3.76.51-2.07.69-3.84,3.2-5.67,3.94-.82.33-1.95.19-2.85.54-4.03,1.57-7.14,2.54-11.45,3.35-.59,3.11,1.28,5.22,1.73,8.13l1.12-.86c1.35-.58.71,1.48.84,2,1.05,4.48,2.6,8.78,4.13,12.82,1.64,4.35,3.97,11.26,6.58,14.92.91,1.27,2.92,2.47,4.53,2.24,1.77-.26,8.62-9.59,10.69-11.69,9.07-9.18,20.8-16.64,31.43-23.69,5.96-3.95,11.53-8.72,18.12-11.56.98,1.32-3.51,6.97-4.26,8.46-7.46,14.85-13.01,31.29-19.45,46.25-1.54,3.59-3.43,7.43-4.82,10.91-.59,1.47.07,5.62,2.24,5.64l40.25-60.54c2.87-1.59,5,.73,7.61,1.36,5.77,1.38,11.9,2,17.68,3.24,3.06.66,8.19,4.2,10.44.68.49-2-6.1-8.16-7.52-10.09l-3.71-2.51c4.41-.67,8.74,1.57,13.36,2.18,3.09.41,7.33.57,10.39.36,3.81-2.28-5.01-9.89-5.83-12.55-.53-.75-9.57-6.45-8.3-7.52,2.15.35,5.57.15,7.52.58.4.09.38.94.83,1.07,4.74,1.36,12.36,3.3,13.57,8.93,1.15,5.31-.53,13.48-1.01,19.1-.06.75.54,1.59.51,2.29-.16,3.5-10.62,16.84-13.56,19.7-13.85,13.47-30.33,23.32-42.35,38.5-14.69,18.55-12.25,41.86-11.33,63.9.08,2,.21,8.11.57,9.48.15.6,1.2.58,1.42.92.23.37-.31,5.19,1.7,5.15l1.72-.58c-.41-1.54.2-4.18,0-5.4-.14-.86-1.23-1.56-1.45-3.37-.48-3.96.27-8.91.04-13.04-1.08-19.69-2.81-35.86,9.57-52.54,8.69-11.7,20.66-20.17,31.4-29.69,7.96-7.05,16.81-14.07,22.59-23.2,4.06-6.42,3.06-13.37,3.75-20.56.34-3.49,1.54-5.13.93-9.52-1.33-9.49-7.87-12.76-16.11-14.98-6.98-1.88-13.19-2.73-20.41-1.76l-1.17,3.81c3.23,1.47,6.75,3.81,9.52,6.05,1.47,1.18,9.8,8.54,7.96,10.41-4.72-.94-9.45-1.97-14.13-3.1-2.12-.51-4.16-1.05-6.37-1.55-3.36-.76-8.68-3.99-7.14,2.6l14.63,12.22c-5.67-.76-11.56-2.08-17.09-3.54-2.04-.54-4.22-1.1-6.24-1.68-1.89-.54-2.97-2.68-6.07-1.27l-25.17,39.27c-1.38-.86-.47-2.26,0-3.38,5.43-12.86,11.87-25.08,17.72-37.68.91-1.96,6.26-13.69,6.24-14.63-.04-1.7-1.77-3.27-3.49-3-1.5.23-5.75,5.75-7.46,7.27-6.9,6.13-16.84,11.38-24.59,16.7-2.4,1.65-5.66,3.37-7.51,4.76-8.28,6.2-16.66,14.48-23.86,21.83-1.47,1.5-3.21,2.83-4.83,4.19.34-2.15-2.12-4.14-2.77-5.55-.73-1.58-.98-3.5-1.65-5.01-1.82-4.09-5.59-10.91-6.63-14.87-.21-.79-.55-1.49,0-2.27,2.37-.95,4.81-2.76,6.96-3.8,5.97-2.91,12.49-5.58,18.36-8.78,7.98-4.36,14.48-9.49,21.4-15.36,1.31-1.73-1.53-7.55-2.14-9.81-.45-1.65-3.1-11.48-2.91-12.16.28-1.01,5.86-3.41,7.45-4.46,4.05-2.69,13.6-10.61,15.91-14.62,2.59-4.5-.24-5.54-1.98-8.71-6.64-12.04-11.04-20.52-20.55-30.9-4.46-4.86-8.4-9.84-12.78-14.92-.66-.76-7.23-6.62-6.21-7.63,1.16.63,2.56-.06,3.51.15,9.91,2.17,26.14,10.24,35.57,14.76,1.49.72,7.3,2.53,7.72,2.79.6.36,2.39,2.99,3.32,3.7,2.35,1.8,5.2,2.72,7.74,4.13,1.52.85,4.16,3.49,5.73,3.31,2.71-2.44,6.65-4.3,9.31-6.55,3.36-2.84,2.78-4.08,4.64-6.67,3.35-4.67,7.29-8.97,10.56-13.75,2.35-3.44,4.99-9.36,7.19-12.03.4-.49,2.96-2.43,3.08-2.28-1.21,3.37-1.47,6.87-2.4,10.31-3.06,11.38-6.96,21.85-11.3,32.8-.49,1.24-3.22,3.91-1.01,5.79,3.42,2.89,8.26-5.05,10.74-7.36,9.32-8.69,21.91-18.76,31.94-26.86.9-.72,5.58-5.9,6.52-5.07l-7.92,11.58c-7.73,7.61-13.42,17.41-21.17,25.18-1.07,1.07-5.19,3.72-5.67,4.5-1.79,2.91,2.02,4.55,4.52,4.58,7.35.06,16.54-2.42,24.3-2.92,20.55-1.32,43.97-.54,63.48,4.98,1.62.46,3.55.68,5.23.71v1.69c-4.53-.51-8.81,1.36-13.29,1.59-11.25.57-23.12-2.38-34.49.16l-11.22-1.12c-5.66,6.93.55,5.06,4.32,6.27.82.26,1.24,1.31,1.92,1.49.87.23,2.74-.69,4.37-.47,4.09.56,13.17,9.38,16.45,12.41,7.63,7.06,13.88,12.56,18.01,22.7,2.37,5.82,4.02,12.11,6.33,17.98,1.18,1.79,3.26,2.39,4.91,3.42,1.01.63,1.05,2.53,3.81,1.71l-1.69.84c2.22,2.25,3.93,5.33,5.92,7.65,1.64,1.91,4.28,3.74,5.95,5.92,3.15,4.11,5.35,9.74,9.04,13.57l-1.31.74-16.75-11.55-1.63,1.31c.38,4.09-.38,8.2-.09,12.31.21,2.99,1.25,6.2,1.62,9.12.52,4.08-.33,9.86,2.33,12.94l-1.64,1.16,3.47,23.58,7.53,11.75c2.92.1,2.69-2.11,3.97-3.95,10.15-14.57,17.86-30.3,26.91-45.45,4.89-8.18,11.36-16.04,16.53-24.18,16.18-25.45,30.97-51.75,47.28-77.1,1.8-2.79,4.07-8.55,5.89-10.5,2.25-2.41,7.28-3.14,10.14-4.55,27.28-13.44,52.88-28.57,81.61-39.38.97-.36,7.51-3,7.49-.98-4.83,5.95-8.77,12.63-13.83,18.38-5.93,6.73-13.43,12.9-18.93,20.08-2.7,3.52-8.9,12.13-10.77,15.8-2.08,4.07.76,3.1,1.18,6.2.57,4.24.51,11.9.56,16.4.17,17.14-2.9,34.26-2.91,51.47,0,6.47,1.62,13.36,1.23,19.78-.89,14.8-2.02,28-1.76,43,.12,7.15-.03,21.3,1.33,27,.14.61.85,1.12.93,1.83.32,2.64-1.11,5.66,1.76,6.8-2.4,4.84.11,10.16.52,15.22.91,11.19.91,22.21,2.3,33.32.04.32,1.12,3.46,1.41,3.65,2.07,1.39,4.46-1.26,6.34-2.06,2.71-1.15,6.73-2.84,9.5-3.51,3.17-.78-2.58,3.74-2.8,3.99-19.1,20.59-37.67,32.75-59.99,49.12-6.39,4.69-11.85,8.83-18.93,12.73-1.54.85-11.86,6.37-12.45,5.92,5.51-8.48,9.85-17.94,16.41-25.7,1.28-1.51,4.74-3.75,4.97-5.22-.1-1.93-.93-3.53-1.05-5.52-1.16-20.24,1.9-40.74,2.26-61.1.46-25.88-1.07-53.73-3.37-79.68-.4-4.51-.76-10.08-1.4-14.44-.19-1.29-.35-3.51-1.82-3.87-1.14-.23-1.89.47-2.71,1.06-2.72,1.95-11.64,11.06-13.85,13.85-1.82,2.29-3.23,5.93-4.84,8.16-16.79,23.18-33,46.56-51.15,68.71-3.74,4.56-7.81,8.85-11.58,13.3-4.41,5.21-8.69,10.52-12.99,15.81-3.65-2.09-5.93-5.81-8.75-8.76-8.68-9.05-16.55-18.06-24.57-28.01-1.42-1.77-2.25-4.23-3.73-5.89-1.78-2-5.15-3.77-7.03-5.98-1.71-2.02-1.77-6.22-5.71-2.8-2.38,2.07-2.22,7.74-2.88,10.83-1.37,6.45-2.65,12.47-3.41,18.95-.19,1.61.65,4.36-.21,6.41-2.43-1.8-4.74-9.53-6.8-10.46-1-.45-3.62-.21-4.36.42-.42.36-.45,1.47-1.02,2.08-3.88,4.17-5.34,6.74-8.3,11.5-.44.71-.53,1.19-1.56.98-.5-.38-2.32-7.94-2.96-9.2-2.47-4.92-8.95-12.72-12.59-16.81-.51-.57-.67-1.49-.89-2.22l-1.33-.04c-.32,1.27-1.73,1.08-2.28,1.7-1.91,2.2-.34,7.91-.42,10.45-.1,3.23-1.34,6.66-1.58,9.62-1.12,13.74,2.96,28.89,5.08,42.4l1.29,27.06c.57,1.39,5.49,3.05,7.15,4.08,5.56,3.44,10.54,7.84,15.34,11.95l3.93,4.67c-2.68.79-4.01-1.09-5.9-1.73-7.73-2.63-14.9-6.36-22.23-9.43-5.25-2.2-7.31-4.71-12.06-7.73-13.58-8.66-25.44-14.06-40.1-20.4-6.35-2.74-7.05-5-11.73-8.78-5.88-4.73-16.77-10.78-18.81-18.92-.3-1.21-.15-.62.58-.59,1.48.07,4.36.25,5.76.48,2.02.34,6.9,2.17,8.02,2.08,1.94-.16,3.59-2.28,2.54-3.89-.48-.74-14.79-4.06-17.02-4.74s-8.38-4.83-9.92-1.14c-1.3,3.12.23,3.12,1.48,5.06,4.12,6.42,9.65,16.49,15.56,20.9,8.12,6.06,14.97,12.37,24.54,16.46,13.96,5.96,26.1,12.08,38.94,20.71,1.45.97,4.5,4.24,5.74,4.83,2.46,1.19,6.45,2,9.6,3.29,7.12,2.92,14.6,6.78,22.19,8.9,3.78,1.06,19.41,3.96,13.01-3.97-5.17-6.41-19.95-18.83-26.96-23.36-1.32-.86-4.64-1.54-5.18-3.31-.75-2.47.13-8.63-.12-11.76-1.26-16.32-6.87-35.67-6.23-51.48.17-4.12,1.7-8.44,1.16-12.69.86-.18,1.2.25,1.7.84,3.54,4.27,7.97,11.27,9.45,16.55,1.13,4.01.3,13.06,6.08,9.15,3.66-6.1,6.54-12.76,11.34-18.07.59-.16,1.68.91,1.98,1.4,1.43,2.29,2.73,6.23,4.03,8.41,1.57,2.63,3.11,5.53,6.28,4.76,3.92-.94,2.02-6.2,2.08-8.66.13-5.27.77-17.1,1.85-21.89.18-.79,2.37-6.75,2.67-6.96,1.04-.5,2.24.29,2.36,1.37l1.61-.48c.84,3.25,4.58,6.07,6.78,8.78,1.02,1.27,5.2,7.87,6.01,8.07.37.09,1.3-.51,1.35-.45-.59,3.85,2.71,5.02,4.34,6.98,6.23,7.51,12.74,15.4,20.34,21.49,2,1.6,1.65,3.59,5.7,2.19,3.24-1.12,9.15-10.1,11.74-13.14,23.27-27.37,43.52-53.89,64.42-83.13,5.73-8.02,8.23-13.59,15.85-20.89.61-.58,1.01-1.32,2-1.11-.4,2.28.39,4.39.57,6.5.2,2.36,1.02,5.55,1.06,6.75.07,2.44-.64,5.56-.48,8.5.38,7.3,2.72,16.16,2.86,23.18.07,3.43-.99,7.8-1.01,11.33-.08,12.64,1.72,24.97,1.54,37.85-.24,16.68-2.48,33.06-2.71,49.75-.04,3.23.99,7.28.42,10.71-.32,1.9-10.14,14.78-12.09,17.87-2.41,3.81-4.34,8.9-7.1,12.68-1.3,1.78-8.58,7.9-5.57,9.81,3.15.35,6.64-1.23,9.52-2.47,21.81-9.39,40.08-25.3,59.19-39.18,5.75-4.17,11.75-7.74,17.26-12.54,9.16-7.97,16.94-17.98,26.19-25.98,1.94-1.68,4.19-1.33,4.68-4.39s-1.69-2.6-4-2.27l-23.03,7.78c-.54-5.74-1.81-11.5-2.26-17.25-1.62-20.55-3.79-41-4.5-61.64-.71-20.46,1.14-40.69-.02-61.04-.09-26,4.41-51.96,1.11-77.98,8.35-15.76,22.35-26.77,33.04-40.51,3.66-4.7,6.83-9.75,10.28-14.59,1.34-1.89,4.18-3.31,2.78-6.26-1.02-2.16-3.15-.08-4.78.3-16.86,4.02-35,13.1-50.7,20.54-17.28,8.18-33.35,19.22-51.51,25.1-3,3.8-4.68,8.84-7.27,12.8-1.85,2.82-4.52,5.04-6.36,7.78-2.32,3.47-3.66,7.55-5.85,11.11-19.41,31.51-39.12,62.88-58.03,94.61-4.45,7.47-8.84,15.35-13.46,22.73-2.08,3.32-4.8,6.24-6.72,9.67l-1.66.58c-.4-.05-4.54-6.12-4.7-6.66-2.11-7-2.75-18.83-3.53-26.43-.63-6.12-2.15-15.8-2.15-21.47,0-1.14.7-2.42.45-3.68.31-.33,5,2.24,5.59,2.61,5.65,3.51,11.8,7.85,16.43,12.41.88.87,2.32,1.23,2.31,2.5,4.17-.88.38-7.1-.92-9.54-5.63-10.57-16.75-24.48-24.8-33.43-1.84-2.04-7.25-5.95-8.26-7.57-2.1-3.37-4.29-12.84-6.08-17.11-4.9-11.69-16.35-21.96-26.09-29.9-1.19-.97-5.61-2.29-2-3.63,9.5-.48,19.37.69,28.81-.16,7.16-.65,14.23-1.54,21.43-2.18,3.25-.29,6.97-.36,5.15-4.44-1.48-3.31-19.3-8.08-23.33-8.9-20.27-4.13-43.67-4.19-64.21-3.5-4.58.15-9.94,1.59-14.51,2.21.73-.91,1.03-2.2,1.7-3.1,11.26-15.2,24.88-28.86,34.94-45.33,1.26-2.07,5.39-8.54,1.4-9.69-2.93-.85-3.84,1.36-5.29,2.39-13.92,9.9-25.5,22.5-38.69,33.13-.87.7-7.5,7.02-8.19,6.22,0-3.66,2.25-7.06,3.22-10.62,2.22-8.11,6.5-23.08,6.97-30.95.06-.97-.03-2.83-.75-3.49v.05h0Z" style="fill: #fff;"/>
  <path d="M177.94,17.11c.72.67.81,2.52.75,3.49-.47,7.88-4.75,22.85-6.97,30.95-.98,3.56-3.22,6.96-3.22,10.62.7.8,7.33-5.52,8.19-6.22,13.19-10.63,24.78-23.23,38.69-33.13,1.44-1.03,2.36-3.24,5.29-2.39,3.99,1.15-.14,7.63-1.4,9.69-10.06,16.47-23.68,30.13-34.94,45.33-.67.9-.97,2.19-1.7,3.1,4.57-.62,9.93-2.06,14.51-2.21,20.54-.69,43.94-.63,64.21,3.5,4.02.82,21.85,5.59,23.33,8.9,1.82,4.08-1.9,4.15-5.15,4.44-7.21.64-14.28,1.53-21.43,2.18-9.44.85-19.31-.32-28.81.16-3.61,1.34.81,2.66,2,3.63,9.73,7.94,21.19,18.21,26.09,29.9,1.79,4.26,3.98,13.74,6.08,17.11,1.01,1.62,6.42,5.53,8.26,7.57,8.05,8.95,19.17,22.86,24.8,33.43,1.3,2.44,5.09,8.66.92,9.54.01-1.27-1.43-1.63-2.31-2.5-4.63-4.56-10.77-8.9-16.43-12.41-.59-.37-5.29-2.94-5.59-2.61.25,1.26-.45,2.54-.45,3.68,0,5.67,1.53,15.35,2.15,21.47.78,7.6,1.42,19.43,3.53,26.43.16.54,4.3,6.61,4.7,6.66l1.66-.58c1.93-3.42,4.65-6.35,6.72-9.67,4.61-7.38,9-15.26,13.46-22.73,18.91-31.73,38.62-63.1,58.03-94.61,2.19-3.56,3.53-7.64,5.85-11.11,1.84-2.74,4.51-4.96,6.36-7.78,2.59-3.96,4.27-9,7.27-12.8,18.16-5.88,34.22-16.92,51.51-25.1,15.7-7.43,33.84-16.52,50.7-20.54,1.63-.39,3.76-2.47,4.78-.3,1.4,2.95-1.44,4.37-2.78,6.26-3.45,4.85-6.63,9.89-10.28,14.59-10.69,13.73-24.68,24.75-33.04,40.51,3.3,26.02-1.19,51.98-1.11,77.98,1.16,20.35-.69,40.58.02,61.04.72,20.63,2.88,41.09,4.5,61.64.45,5.75,1.72,11.51,2.26,17.25l23.03-7.78c2.3-.34,4.48-.71,4,2.27s-2.74,2.71-4.68,4.39c-9.25,8-17.02,18.01-26.19,25.98-5.52,4.8-11.52,8.37-17.26,12.54-19.11,13.88-37.39,29.79-59.19,39.18-2.88,1.24-6.38,2.82-9.52,2.47-3.01-1.92,4.27-8.03,5.57-9.81,2.76-3.78,4.69-8.87,7.1-12.68,1.95-3.09,11.78-15.97,12.09-17.87.57-3.44-.47-7.48-.42-10.71.23-16.7,2.47-33.08,2.71-49.75.18-12.88-1.61-25.21-1.54-37.85.02-3.53,1.08-7.9,1.01-11.33-.14-7.02-2.48-15.88-2.86-23.18-.15-2.94.56-6.06.48-8.5-.04-1.2-.86-4.39-1.06-6.75-.18-2.11-.97-4.22-.57-6.5-.99-.2-1.39.53-2,1.11-7.62,7.3-10.12,12.88-15.85,20.89-20.9,29.24-41.16,55.76-64.42,83.13-2.58,3.04-8.5,12.02-11.74,13.14-4.05,1.39-3.7-.59-5.7-2.19-7.61-6.09-14.11-13.98-20.34-21.49-1.62-1.96-4.93-3.13-4.34-6.98-.05-.06-.98.54-1.35.45-.81-.19-4.99-6.8-6.01-8.07-2.2-2.71-5.94-5.53-6.78-8.78l-1.61.48c-.12-1.08-1.32-1.87-2.36-1.37-.31.21-2.5,6.17-2.67,6.96-1.08,4.79-1.72,16.62-1.85,21.89-.06,2.46,1.84,7.72-2.08,8.66-3.18.76-4.71-2.14-6.28-4.76-1.3-2.18-2.6-6.11-4.03-8.41-.3-.48-1.39-1.56-1.98-1.4-4.8,5.32-7.68,11.97-11.34,18.07-5.78,3.91-4.95-5.15-6.08-9.15-1.48-5.28-5.91-12.28-9.45-16.55-.5-.6-.83-1.02-1.7-.84.54,4.25-.99,8.57-1.16,12.69-.64,15.81,4.98,35.16,6.23,51.48.24,3.13-.64,9.29.12,11.76.54,1.77,3.85,2.45,5.18,3.31,7,4.53,21.79,16.95,26.96,23.36,6.4,7.93-9.24,5.03-13.01,3.97-7.59-2.13-15.07-5.99-22.19-8.9-3.15-1.29-7.13-2.1-9.6-3.29-1.24-.6-4.3-3.86-5.74-4.83-12.84-8.63-24.98-14.75-38.94-20.71-9.57-4.09-16.43-10.39-24.54-16.46-5.9-4.41-11.43-14.47-15.56-20.9-1.25-1.95-2.78-1.94-1.48-5.06,1.54-3.7,7.66.44,9.92,1.14s16.54,4,17.02,4.74c1.05,1.62-.6,3.74-2.54,3.89-1.13.09-6-1.74-8.02-2.08-1.4-.23-4.28-.42-5.76-.48-.73-.03-.88-.62-.58.59,2.04,8.14,12.93,14.19,18.81,18.92,4.69,3.77,5.39,6.03,11.73,8.78,14.66,6.33,26.52,11.74,40.1,20.4,4.75,3.03,6.8,5.53,12.06,7.73,7.33,3.07,14.5,6.8,22.23,9.43,1.89.64,3.22,2.52,5.9,1.73l-3.93-4.67c-4.8-4.11-9.78-8.51-15.34-11.95-1.66-1.03-6.58-2.68-7.15-4.08l-1.29-27.06c-2.11-13.51-6.19-28.65-5.08-42.4.24-2.95,1.48-6.38,1.58-9.62.08-2.55-1.49-8.25.42-10.45.54-.63,1.95-.44,2.28-1.7l1.33.04c.22.72.39,1.65.89,2.22,3.64,4.1,10.12,11.89,12.59,16.81.63,1.26,2.46,8.82,2.96,9.2,1.03.21,1.12-.27,1.56-.98,2.96-4.76,4.42-7.32,8.3-11.5.57-.61.6-1.72,1.02-2.08.75-.64,3.36-.87,4.36-.42,2.06.93,4.37,8.66,6.8,10.46.86-2.06.02-4.81.21-6.41.76-6.48,2.04-12.51,3.41-18.95.65-3.09.5-8.76,2.88-10.83,3.93-3.42,3.99.78,5.71,2.8,1.87,2.21,5.25,3.98,7.03,5.98,1.48,1.66,2.3,4.12,3.73,5.89,8.02,9.95,15.88,18.96,24.57,28.01,2.83,2.95,5.1,6.67,8.75,8.76,4.3-5.28,8.57-10.6,12.99-15.81,3.77-4.45,7.84-8.74,11.58-13.3,18.15-22.14,34.36-45.52,51.15-68.71,1.61-2.23,3.02-5.87,4.84-8.16,2.21-2.78,11.13-11.9,13.85-13.85.83-.59,1.57-1.29,2.71-1.06,1.47.36,1.63,2.57,1.82,3.87.63,4.36.99,9.93,1.4,14.44,2.3,25.95,3.83,53.8,3.37,79.68-.36,20.36-3.42,40.86-2.26,61.1.11,1.99.94,3.59,1.05,5.52-.22,1.47-3.69,3.71-4.97,5.22-6.56,7.76-10.9,17.22-16.41,25.7.58.45,10.91-5.07,12.45-5.92,7.08-3.9,12.54-8.04,18.93-12.73,22.32-16.37,40.9-28.53,59.99-49.12.23-.25,5.97-4.76,2.8-3.99-2.77.68-6.79,2.36-9.5,3.51-1.88.8-4.26,3.45-6.34,2.06-.29-.19-1.37-3.33-1.41-3.65-1.4-11.11-1.39-22.13-2.3-33.32-.41-5.07-2.92-10.38-.52-15.22-2.87-1.15-1.44-4.17-1.76-6.8-.09-.71-.79-1.22-.93-1.83-1.35-5.71-1.21-19.86-1.33-27-.25-14.99.88-28.19,1.76-43,.38-6.42-1.23-13.3-1.23-19.78,0-17.21,3.08-34.33,2.91-51.47-.05-4.5.01-12.15-.56-16.4-.42-3.1-3.26-2.13-1.18-6.2,1.87-3.67,8.07-12.28,10.77-15.8,5.51-7.18,13-13.34,18.93-20.08,5.07-5.75,9-12.43,13.83-18.38.02-2.02-6.52.62-7.49.98-28.73,10.81-54.33,25.94-81.61,39.38-2.87,1.41-7.89,2.15-10.14,4.55-1.83,1.95-4.1,7.71-5.89,10.5-16.31,25.34-31.1,51.65-47.28,77.1-5.17,8.14-11.64,16-16.53,24.18-9.05,15.15-16.76,30.89-26.91,45.45-1.28,1.84-1.05,4.05-3.97,3.95l-7.53-11.75-3.47-23.58,1.64-1.16c-2.66-3.08-1.81-8.85-2.33-12.94-.37-2.92-1.41-6.13-1.62-9.12-.29-4.12.47-8.23.09-12.31l1.63-1.31,16.75,11.55,1.31-.74c-3.69-3.83-5.89-9.47-9.04-13.57-1.67-2.18-4.31-4.02-5.95-5.92-1.99-2.31-3.7-5.4-5.92-7.65l1.69-.84c-2.76.82-2.8-1.09-3.81-1.71-1.65-1.03-3.74-1.63-4.91-3.42-2.32-5.86-3.96-12.15-6.33-17.98-4.13-10.14-10.37-15.64-18.01-22.7-3.27-3.03-12.36-11.85-16.45-12.41-1.63-.22-3.5.69-4.37.47-.69-.18-1.11-1.23-1.92-1.49-3.76-1.21-9.97.66-4.32-6.27l11.22,1.12c11.37-2.54,23.24.42,34.49-.16,4.48-.23,8.76-2.09,13.29-1.59v-1.69c-1.68-.03-3.61-.26-5.23-.71-19.51-5.52-42.93-6.3-63.48-4.98-7.76.5-16.96,2.98-24.3,2.92-2.5-.02-6.31-1.66-4.52-4.58.48-.78,4.6-3.42,5.67-4.5,7.76-7.77,13.44-17.57,21.17-25.18l7.92-11.58c-.94-.83-5.62,4.34-6.52,5.07-10.02,8.1-22.62,18.17-31.94,26.86-2.48,2.31-7.32,10.25-10.74,7.36-2.21-1.87.51-4.55,1.01-5.79,4.33-10.95,8.23-21.43,11.3-32.8.93-3.45,1.19-6.95,2.4-10.31-.12-.15-2.68,1.8-3.08,2.28-2.2,2.66-4.84,8.59-7.19,12.03-3.27,4.78-7.2,9.08-10.56,13.75-1.86,2.59-1.28,3.83-4.64,6.67-2.66,2.25-6.6,4.11-9.31,6.55-1.57.18-4.21-2.47-5.73-3.31-2.54-1.41-5.38-2.34-7.74-4.13-.92-.7-2.72-3.33-3.32-3.7-.43-.26-6.23-2.08-7.72-2.79-9.42-4.52-25.65-12.59-35.57-14.76-.95-.21-2.35.48-3.51-.15-1.02,1.01,5.55,6.87,6.21,7.63,4.38,5.08,8.33,10.06,12.78,14.92,9.5,10.37,13.91,18.86,20.55,30.9,1.74,3.16,4.58,4.21,1.98,8.71-2.31,4.01-11.86,11.93-15.91,14.62-1.59,1.05-7.17,3.45-7.45,4.46-.19.68,2.47,10.51,2.91,12.16.61,2.26,3.45,8.08,2.14,9.81-6.92,5.87-13.41,11-21.4,15.36-5.87,3.2-12.39,5.87-18.36,8.78-2.14,1.04-4.59,2.85-6.96,3.8-.55.78-.21,1.48,0,2.27,1.04,3.96,4.81,10.78,6.63,14.87.67,1.51.92,3.43,1.65,5.01.65,1.41,3.11,3.4,2.77,5.55,1.62-1.36,3.36-2.69,4.83-4.19,7.2-7.35,15.58-15.62,23.86-21.83,1.85-1.39,5.11-3.11,7.51-4.76,7.75-5.31,17.69-10.57,24.59-16.7,1.72-1.52,5.96-7.04,7.46-7.27,1.72-.26,3.45,1.3,3.49,3,.02.94-5.33,12.67-6.24,14.63-5.85,12.59-12.29,24.82-17.72,37.68-.47,1.12-1.39,2.52,0,3.38l25.17-39.27c3.1-1.41,4.18.73,6.07,1.27,2.01.57,4.2,1.14,6.24,1.68,5.53,1.46,11.41,2.78,17.09,3.54l-14.63-12.22c-1.54-6.59,3.78-3.37,7.14-2.6,2.21.5,4.24,1.04,6.37,1.55,4.68,1.13,9.41,2.16,14.13,3.1,1.84-1.87-6.49-9.22-7.96-10.41-2.78-2.24-6.3-4.58-9.52-6.05l1.17-3.81c7.22-.96,13.44-.11,20.41,1.76,8.24,2.22,14.78,5.49,16.11,14.98.61,4.39-.59,6.03-.93,9.52-.69,7.19.31,14.13-3.75,20.56-5.78,9.14-14.63,16.15-22.59,23.2-10.74,9.52-22.71,17.98-31.4,29.69-12.38,16.68-10.66,32.85-9.57,52.54.23,4.13-.52,9.08-.04,13.04.22,1.81,1.31,2.51,1.45,3.37.2,1.22-.41,3.86,0,5.4l-1.72.58c-2.01.04-1.47-4.78-1.7-5.15-.22-.35-1.27-.33-1.42-.92-.35-1.37-.48-7.47-.57-9.48-.92-22.04-3.36-45.35,11.33-63.9,12.02-15.18,28.5-25.02,42.35-38.5,2.95-2.87,13.41-16.2,13.56-19.7.03-.7-.57-1.54-.51-2.29.48-5.62,2.16-13.78,1.01-19.1-1.22-5.63-8.83-7.57-13.57-8.93-.45-.13-.43-.98-.83-1.07-1.95-.43-5.37-.23-7.52-.58-1.27,1.07,7.77,6.77,8.3,7.52.82,2.67,9.64,10.27,5.83,12.55-3.06.21-7.3.05-10.39-.36-4.62-.61-8.95-2.86-13.36-2.18l3.71,2.51c1.42,1.93,8.01,8.09,7.52,10.09-2.25,3.52-7.38-.02-10.44-.68-5.77-1.25-11.9-1.86-17.68-3.24-2.61-.63-4.74-2.95-7.61-1.36l-40.25,60.54c-2.17,0-2.83-4.16-2.24-5.64,1.39-3.47,3.28-7.32,4.82-10.91,6.44-14.96,11.99-31.39,19.45-46.25.75-1.49,5.24-7.13,4.26-8.46-6.59,2.84-12.16,7.61-18.12,11.56-10.63,7.05-22.36,14.51-31.43,23.69-2.07,2.1-8.92,11.43-10.69,11.69-1.61.23-3.62-.97-4.53-2.24-2.62-3.65-4.94-10.56-6.58-14.92-1.53-4.04-3.08-8.35-4.13-12.82-.12-.52.51-2.57-.84-2l-1.12.86c-.46-2.91-2.33-5.02-1.73-8.13,4.31-.81,7.42-1.78,11.45-3.35.9-.35,2.03-.21,2.85-.54,1.83-.74,3.6-3.25,5.67-3.94,1.12-.37,3.62-.38,3.76-.51.18-.16-.2-1.1.4-1.66,1.64-1.51,5.61-1.85,7.68-2.97,3.05-1.65,8.61-6.38,11.38-8.67,1.57-1.29,5.45-3.31,5.36-5.41l-5.51-21.57,10.65-5.24c2.55-3.29,7.31-5.6,10.17-8.46.84-.84,2.91-3.53,3.24-4.57.5-1.55-2.4-7.59-3.33-9.36-8.41-16.09-23.43-33.61-36.07-46.05-.99-.98-.91-3.08-1.23-3.44-.74-.82-1.08-.34-2.69-2.67-1.03-1.49-2.57-1.59-1.05-4.15,1.5-.22,3.07-.16,4.57.06,2.9.43,10.98,3.15,13.51,4.58,4.56,2.58,5.52,2.15,10.2,3.94,12.23,4.68,22.73,10.65,33.9,16.98.98.56,7.06,3.75,7.47,3.67,2.66-2.09,7.77-5.15,9.67-7.85,7.46-10.58,14.61-22.15,22.57-32.27,2.29-2.91,6.34-10.85,10.36-7.12v-.05h0Z"/>
</svg>